<?xml version="1.0" encoding="utf-8"?>
<!-- Generator: Adobe Illustrator 25.2.1, SVG Export Plug-In . SVG Version: 6.00 Build 0)  -->
<svg version="1.1" id="Layer_1" xmlns="http://www.w3.org/2000/svg" xmlns:xlink="http://www.w3.org/1999/xlink" x="0px" y="0px"
	 viewBox="0 0 2065 1048" style="enable-background:new 0 0 2065 1048;" xml:space="preserve">
<style type="text/css">
	.st0{opacity:0.7;fill:#A0A0A0;stroke:#000000;stroke-width:1.1745;stroke-miterlimit:4.698;enable-background:new    ;}
	.st1{opacity:0.7;fill:#E0E0E0;stroke:#000000;stroke-width:1.1745;stroke-miterlimit:4.698;enable-background:new    ;}
	.st2{fill-opacity:0;stroke:#000000;stroke-width:1.1745;stroke-miterlimit:4.698;stroke-opacity:0.7;}
	.st3{fill:none;stroke:#000000;stroke-width:0.5873;stroke-miterlimit:4.698;stroke-opacity:0.7;}
	.st4{font-family:'Helvetica';}
	.st5{font-size:18.792px;}
</style>
<g transform="translate(407.5900191689532,-132.24054656400017) scale(1.1745023179090566)">
	<rect id="_x30__x5F_0" x="-187.2" y="385" class="st0" width="8" height="40"/>
	<rect id="_x30__x5F_1" x="-171.2" y="401" class="st1" width="8" height="40"/>
	<rect id="_x30__x5F_2" x="-155.2" y="417" class="st0" width="8" height="40"/>
	<rect id="_x30__x5F_3" x="-139.2" y="433" class="st1" width="8" height="40"/>
	<rect id="_x30__x5F_4" x="-123.2" y="449" class="st0" width="8" height="40"/>
	<rect id="_x30__x5F_5" x="-107.2" y="465" class="st1" width="8" height="40"/>
	<rect id="_x30__x5F_6" x="-91.2" y="481" class="st0" width="8" height="40"/>
	<rect id="_x30__x5F_7" x="-75.2" y="497" class="st1" width="8" height="40"/>
	<rect id="_x30__x5F_8" x="-59.2" y="513" class="st0" width="8" height="40"/>
	<rect id="_x30__x5F_9" x="-43.2" y="529" class="st1" width="8" height="40"/>
	<rect id="_x30__x5F_10" x="-27.2" y="545" class="st0" width="8" height="40"/>
	<rect id="_x30__x5F_11" x="-11.2" y="561" class="st1" width="8" height="40"/>
	<rect id="_x30__x5F_12" x="4.8" y="577" class="st0" width="8" height="40"/>
	<rect id="_x30__x5F_13" x="20.8" y="593" class="st1" width="8" height="40"/>
	<rect id="_x30__x5F_14" x="36.8" y="609" class="st0" width="8" height="40"/>
	<rect id="_x30__x5F_15" x="52.8" y="625" class="st1" width="8" height="40"/>
	<rect id="_x30__x5F_16" x="68.8" y="641" class="st0" width="8" height="40"/>
	<rect id="_x30__x5F_17" x="84.8" y="657" class="st1" width="8" height="40"/>
	<rect id="_x30__x5F_18" x="100.8" y="673" class="st0" width="8" height="40"/>
	<rect id="_x30__x5F_19" x="116.8" y="689" class="st1" width="8" height="40"/>
	<rect id="_x31__x5F_0" x="40.8" y="417" class="st0" width="8" height="2"/>
	<rect id="_x31__x5F_1" x="56.8" y="433" class="st1" width="8" height="2"/>
	<rect id="_x31__x5F_2" x="72.8" y="449" class="st0" width="8" height="2"/>
	<rect id="_x31__x5F_3" x="88.8" y="465" class="st1" width="8" height="2"/>
	<rect id="_x31__x5F_4" x="104.8" y="481" class="st0" width="8" height="2"/>
	<rect id="_x31__x5F_5" x="120.8" y="497" class="st1" width="8" height="2"/>
	<rect id="_x31__x5F_6" x="136.8" y="513" class="st0" width="8" height="2"/>
	<rect id="_x31__x5F_7" x="152.8" y="529" class="st1" width="8" height="2"/>
	<rect id="_x31__x5F_8" x="168.8" y="545" class="st0" width="8" height="2"/>
	<rect id="_x31__x5F_9" x="184.8" y="561" class="st1" width="8" height="2"/>
	<rect id="_x31__x5F_10" x="200.8" y="577" class="st0" width="8" height="2"/>
	<rect id="_x31__x5F_11" x="216.8" y="593" class="st1" width="8" height="2"/>
	<rect id="_x31__x5F_12" x="232.8" y="609" class="st0" width="8" height="2"/>
	<rect id="_x31__x5F_13" x="248.8" y="625" class="st1" width="8" height="2"/>
	<rect id="_x31__x5F_14" x="264.8" y="641" class="st0" width="8" height="2"/>
	<rect id="_x31__x5F_15" x="280.8" y="657" class="st1" width="8" height="2"/>
	<rect id="_x32__x5F_0" x="251.8" y="417" class="st0" width="8" height="2"/>
	<rect id="_x32__x5F_1" x="267.8" y="433" class="st1" width="8" height="2"/>
	<rect id="_x32__x5F_2" x="283.8" y="449" class="st0" width="8" height="2"/>
	<rect id="_x32__x5F_3" x="299.8" y="465" class="st1" width="8" height="2"/>
	<rect id="_x32__x5F_4" x="315.8" y="481" class="st0" width="8" height="2"/>
	<rect id="_x32__x5F_5" x="331.8" y="497" class="st1" width="8" height="2"/>
	<rect id="_x32__x5F_6" x="347.8" y="513" class="st0" width="8" height="2"/>
	<rect id="_x32__x5F_7" x="363.8" y="529" class="st1" width="8" height="2"/>
	<rect id="_x32__x5F_8" x="379.8" y="545" class="st0" width="8" height="2"/>
	<rect id="_x32__x5F_9" x="395.8" y="561" class="st1" width="8" height="2"/>
	<rect id="_x32__x5F_10" x="411.8" y="577" class="st0" width="8" height="2"/>
	<rect id="_x32__x5F_11" x="427.8" y="593" class="st1" width="8" height="2"/>
	<rect id="_x32__x5F_12" x="443.8" y="609" class="st0" width="8" height="2"/>
	<rect id="_x32__x5F_13" x="459.8" y="625" class="st1" width="8" height="2"/>
	<rect id="_x32__x5F_14" x="475.8" y="641" class="st0" width="8" height="2"/>
	<rect id="_x32__x5F_15" x="491.8" y="657" class="st1" width="8" height="2"/>
	<rect id="_x33__x5F_0" x="452.8" y="417" class="st0" width="8" height="2"/>
	<rect id="_x33__x5F_1" x="468.8" y="433" class="st1" width="8" height="2"/>
	<rect id="_x33__x5F_2" x="484.8" y="449" class="st0" width="8" height="2"/>
	<rect id="_x33__x5F_3" x="500.8" y="465" class="st1" width="8" height="2"/>
	<rect id="_x33__x5F_4" x="516.8" y="481" class="st0" width="8" height="2"/>
	<rect id="_x33__x5F_5" x="532.8" y="497" class="st1" width="8" height="2"/>
	<rect id="_x33__x5F_6" x="548.8" y="513" class="st0" width="8" height="2"/>
	<rect id="_x33__x5F_7" x="564.8" y="529" class="st1" width="8" height="2"/>
	<rect id="_x33__x5F_8" x="580.8" y="545" class="st0" width="8" height="2"/>
	<rect id="_x33__x5F_9" x="596.8" y="561" class="st1" width="8" height="2"/>
	<rect id="_x33__x5F_10" x="612.8" y="577" class="st0" width="8" height="2"/>
	<rect id="_x33__x5F_11" x="628.8" y="593" class="st1" width="8" height="2"/>
	<rect id="_x33__x5F_12" x="644.8" y="609" class="st0" width="8" height="2"/>
	<rect id="_x33__x5F_13" x="660.8" y="625" class="st1" width="8" height="2"/>
	<rect id="_x33__x5F_14" x="676.8" y="641" class="st0" width="8" height="2"/>
	<rect id="_x33__x5F_15" x="692.8" y="657" class="st1" width="8" height="2"/>
	<rect id="_x34__x5F_0" x="713.8" y="477" class="st0" width="16" height="1"/>
	<rect id="_x34__x5F_1" x="729.8" y="493" class="st1" width="16" height="1"/>
	<rect id="_x34__x5F_2" x="745.8" y="509" class="st0" width="16" height="1"/>
	<rect id="_x34__x5F_3" x="761.8" y="525" class="st1" width="16" height="1"/>
	<rect id="_x34__x5F_4" x="777.8" y="541" class="st0" width="16" height="1"/>
	<rect id="_x34__x5F_5" x="793.8" y="557" class="st1" width="16" height="1"/>
	<rect id="_x34__x5F_6" x="809.8" y="573" class="st0" width="16" height="1"/>
	<rect id="_x34__x5F_7" x="825.8" y="589" class="st1" width="16" height="1"/>
	<rect id="_x35__x5F_0" x="851.8" y="477" class="st0" width="16" height="1"/>
	<rect id="_x35__x5F_1" x="867.8" y="493" class="st1" width="16" height="1"/>
	<rect id="_x35__x5F_2" x="883.8" y="509" class="st0" width="16" height="1"/>
	<rect id="_x35__x5F_3" x="899.8" y="525" class="st1" width="16" height="1"/>
	<rect id="_x35__x5F_4" x="915.8" y="541" class="st0" width="16" height="1"/>
	<rect id="_x35__x5F_5" x="931.8" y="557" class="st1" width="16" height="1"/>
	<rect id="_x35__x5F_6" x="947.8" y="573" class="st0" width="16" height="1"/>
	<rect id="_x35__x5F_7" x="963.8" y="589" class="st1" width="16" height="1"/>
	<rect id="_x36__x5F_0" x="991.8" y="477" class="st0" width="16" height="1"/>
	<rect id="_x36__x5F_1" x="1007.8" y="493" class="st1" width="16" height="1"/>
	<rect id="_x36__x5F_2" x="1023.8" y="509" class="st0" width="16" height="1"/>
	<rect id="_x36__x5F_3" x="1039.8" y="525" class="st1" width="16" height="1"/>
	<rect id="_x36__x5F_4" x="1055.8" y="541" class="st0" width="16" height="1"/>
	<rect id="_x36__x5F_5" x="1071.8" y="557" class="st1" width="16" height="1"/>
	<rect id="_x36__x5F_6" x="1087.8" y="573" class="st0" width="16" height="1"/>
	<rect id="_x36__x5F_7" x="1103.8" y="589" class="st1" width="16" height="1"/>
	<rect id="conv_0" x="116.8" y="692.7" class="st2" width="8" height="8"/>
	<rect id="conv_1" x="283.4" y="656.7" class="st2" width="2" height="5"/>
	<rect id="conv_2" x="491.8" y="656.4" class="st2" width="8" height="8"/>
	<rect id="conv_3" x="692.8" y="651.9" class="st2" width="8" height="8"/>
	<rect id="conv_4" x="830.9" y="583.4" class="st2" width="8" height="8"/>
	<rect id="conv_5" x="964.8" y="583.2" class="st2" width="8" height="8"/>
	<line id="conv_0_1_" class="st3" x1="124.8" y1="700.7" x2="284" y2="657.3"/>
	<line id="conv_0_2_" class="st3" x1="124.8" y1="692.7" x2="284" y2="657.3"/>
	<line id="conv_1_1_" class="st3" x1="285.4" y1="661.7" x2="495.3" y2="657.3"/>
	<line id="conv_1_2_" class="st3" x1="285.4" y1="656.7" x2="495.3" y2="657.3"/>
	<line id="conv_2_1_" class="st3" x1="499.8" y1="664.4" x2="699.8" y2="657.2"/>
	<line id="conv_2_2_" class="st3" x1="499.8" y1="656.4" x2="699.8" y2="657.2"/>
	<line id="conv_3_1_" class="st3" x1="700.8" y1="659.9" x2="837.6" y2="589.9"/>
	<line id="conv_3_2_" class="st3" x1="700.8" y1="651.9" x2="837.6" y2="589.9"/>
	<line id="conv_4_1_" class="st3" x1="838.9" y1="591.4" x2="974" y2="589.8"/>
	<line id="conv_4_2_" class="st3" x1="838.9" y1="583.4" x2="974" y2="589.8"/>
	<line id="conv_5_1_" class="st3" x1="972.8" y1="591.2" x2="1105.8" y2="589.9"/>
	<line id="conv_5_2_" class="st3" x1="972.8" y1="583.2" x2="1105.8" y2="589.9"/>
	<polygon id="fc_0" class="st1" points="1131.8,495.8 1141.8,495.8 1232.3,586.3 1222.3,586.3 	"/>
	<polygon id="fc_1" class="st1" points="1234.3,540.7 1244.3,540.7 1245,541.4 1235,541.4 	"/>
	<line id="fc_0_1_" class="st3" x1="1119.8" y1="605" x2="1222.3" y2="586.3"/>
	<line id="fc_0_2_" class="st3" x1="1007.8" y1="477" x2="1131.8" y2="495.8"/>
	<line id="fc_1_1_" class="st3" x1="1232.3" y1="586.3" x2="1235" y2="541.4"/>
	<line id="fc_1_2_" class="st3" x1="1141.8" y1="495.8" x2="1234.3" y2="540.7"/>
	<text transform="matrix(0.8514 0 0 0.8514 129.7864 702.6287)" class="st4 st5">Max-Pool</text>
	<text transform="matrix(0.8514 0 0 0.8514 317.2861 702.6287)" class="st4 st5">Batch Norm.</text>
	<text transform="matrix(0.8514 0 0 0.8514 523.2859 702.6287)" class="st4 st5">Dropout</text>
	<text transform="matrix(0.8514 0 0 0.8514 724.2862 702.6287)" class="st4 st5">Convolution</text>
	<text transform="matrix(0.8514 0 0 0.8514 863.786 702.6287)" class="st4 st5">Max-Pool</text>
	<text transform="matrix(0.8514 0 0 0.8514 1002.7861 702.6287)" class="st4 st5">Batch Norm.</text>
	<text transform="matrix(0.8514 0 0 0.8514 1133.4141 702.6287)" class="st4 st5">Dropout</text>
	<text transform="matrix(0.8514 0 0 0.8514 -187.2138 365.2284)" class="st4 st5">80@40x8</text>
	<text transform="matrix(0.8514 0 0 0.8514 40.7859 397.2283)" class="st4 st5">16@2x8</text>
	<text transform="matrix(0.8514 0 0 0.8514 251.7862 397.2283)" class="st4 st5">16@2x8</text>
	<text transform="matrix(0.8514 0 0 0.8514 452.7865 397.2283)" class="st4 st5">16@2x8</text>
	<text transform="matrix(0.8514 0 0 0.8514 713.7864 457.2288)" class="st4 st5">8@1x16</text>
	<text transform="matrix(0.8514 0 0 0.8514 851.7862 457.2288)" class="st4 st5">8@1x16</text>
	<text transform="matrix(0.8514 0 0 0.8514 991.7866 457.2288)" class="st4 st5">8@1x16</text>
	<text transform="matrix(0.8514 0 0 0.8514 1131.786 475.9734)" class="st4 st5">1x128</text>
	<text transform="matrix(0.8514 0 0 0.8514 1234.2963 520.8752)" class="st4 st5">1x1</text>
</g>
</svg>
